<mxfile host="app.diagrams.net" modified="2023-12-09T13:38:53.576Z" agent="Mozilla/5.0 (X11; Linux x86_64; rv:120.0) Gecko/20100101 Firefox/120.0" etag="68YAAxcYPLfLUIDi9c7K" version="22.1.7" type="github">
  <diagram name="Page-1" id="gvDR6XCf_k0S4LjeWOJx">
    <mxGraphModel dx="880" dy="442" grid="1" gridSize="10" guides="1" tooltips="1" connect="1" arrows="1" fold="1" page="1" pageScale="1" pageWidth="827" pageHeight="1169" math="0" shadow="0">
      <root>
        <mxCell id="0" />
        <mxCell id="1" parent="0" />
        <mxCell id="3i1KhI-GbpQFPz90tVtI-1" value="" style="shape=image;verticalLabelPosition=bottom;verticalAlign=top;imageAspect=0;aspect=fixed;image=data:image/png,iVBORw0KGgoAAAANSUhEUgAAACAAAAAgCAYAAABzenr0AAAACXBIWXMAAAsSAAALEgHS3X78AAAB7ElEQVRYhe2X0XGcMBCGPzwugFQQqYNTB+cKUAemBErAHdBBcAWRKzjSALoORCoIqUB50DLGfsjId+R4iP8ZhgUk9t9/d4UoYozsibtdvX8SAO4BtPU98Hhj38/BmbpQ1dgDBGfqW3qXoEFVY4wxssehqjHevWPVaeublV0vbBd7a7wvwgmYV/Yk9ryyt8XeKVi6oP0n0WVg93XgohSoaixVNarVtVLVWF7dBTnQ1h9JBRm09bW23gJnYBL7Q7gkBQoYgAegBjo5O+Dw0Zfd5w6UyAEawAVnBuC4el4CjbZ+AKbgzLQZAW29Ak7AD3HeCqEaKIEuONPLuB74qq3XOSRyU3AAfgNWnFshNAmBk7beBmdaGfuTlTpXEwjOOFJkndxqgJfgTBucOQJPcg+gBYbgTL8ZAcGZFO2CbmXPK/tAKsgsZBGQfH8jRQdJeqett5L3ltdvRQv02vqsjsjuAlJerbZ+5lXu73J+JnWAIikw81at6wgEZwZtvSOtAQF4kA1MvYwRlU7AC6kGhs0ICIllnzADtbb+vBAIznQkVZ6kE7JxyUo4kVpsIMl9FDJH3hZjFgpVjRH4EpzJniy7o1IiR3ZRc27ryZwS+FWoaqxJ8jV/n7I5OqArYoxLRPWNCfTBmb74/Df87wn8AUSJzixMxrpwAAAAAElFTkSuQmCC;" vertex="1" parent="1">
          <mxGeometry x="240" y="240" width="32" height="32" as="geometry" />
        </mxCell>
      </root>
    </mxGraphModel>
  </diagram>
</mxfile>
